# xmcd
# 
# Track frame offsets:
#     150
#     24742
#     46100
#     66095
#     95437
#     118592
#     147327
#     171219
#     190825
#     220022
#     240767
# 
# Disc length: 3654
# 
# Revision: 4
# Processed by: cddbd v1.5.2PL0 Copyright (c) Steve Scherf et al.
# Submitted via: fre:ac v1.0.31
# 
DISCID=8f0e440b
DTITLE=Spyro Gyra - A Foreign Affair
DYEAR=2011
DGENRE=Jazz
TTITLE0=Caribe
TTITLE1=Khuda
TTITLE2=Sweet ole thang
TTITLE3=Falling walls
TTITLE4=Shinjuku
TTITLE5=Chileno boys
TTITLE6=Samba for two
TTITLE7=Canção de ninar
TTITLE8=Antigua
TTITLE9=Last call
TTITLE10=Dancing on table mountain
EXTD=YEAR: 2011
EXTT0=
EXTT1=
EXTT2=
EXTT3=
EXTT4=
EXTT5=
EXTT6=
EXTT7=
EXTT8=
EXTT9=
EXTT10=
PLAYORDER=
